# xmcd CD database file
#
# Track frame offsets:
#	150
#	21487
#	41398
#	57361
#	72536
#	91810
#	106296
#	125462
#	148370
#	168898
#	186953
#	205624
#	231967
#	250702
#	272358
#	290047
#
# Disc length: 4059 seconds
#
# Revision: 0
# Processed by: cddbd v1.5.1PL0 Copyright (c) Steve Scherf et al.
# Submitted via: Feurio! 1.66 - http://www.feurio.com
#
DISCID=eb0fd910
DTITLE=Various Artist - Mega Canzones 2
DYEAR=1900
DGENRE=
TTITLE0=Kabriolet - Kusaiu ruki
TTITLE1=Robbie Williams - Eternity
TTITLE2=Nek - Lascia Che Io Sia.....
TTITLE3=A. Pugachova - Rechnoj tramvajchik
TTITLE4=Anna Tatangelo - Ragazza di peeriferia
TTITLE5=Kabriolet - Ya Tebya Revnuyu
TTITLE6=Biagio Antonacci - Pazzo di lei
TTITLE7=Kabriolet - Ya Toboiu Okoldovan
TTITLE8=Adriano Celentano - Ancora vivo
TTITLE9=Biagio Antonacci - Mio padre e un re
TTITLE10=Julia Savicheva - Prosti za lybov'
TTITLE11=Kabriolet - More Liubvi
TTITLE12=Adriano Celentano - Valeva la pena
TTITLE13=Gigi D'alessio - Liberi da Noi
TTITLE14=Tiromancino - Amore impossibile
TTITLE15=Shakira - La Tortura ReMiX
EXTD=
EXTT0=
EXTT1=
EXTT2=
EXTT3=
EXTT4=
EXTT5=
EXTT6=
EXTT7=
EXTT8=
EXTT9=
EXTT10=
EXTT11=
EXTT12=
EXTT13=
EXTT14=
EXTT15=
PLAYORDER=
